<svg width="30" height="30" viewBox="0 0 30 30" fill="none" xmlns="http://www.w3.org/2000/svg">
<g id="ion:bag-outline">
<path id="Vector" d="M9.375 10.3125V8.4375C9.375 6.94566 9.96763 5.51492 11.0225 4.46002C12.0774 3.40513 13.5082 2.8125 15 2.8125C16.4918 2.8125 17.9226 3.40513 18.9775 4.46002C20.0324 5.51492 20.625 6.94566 20.625 8.4375V10.3125M4.6875 10.3125C4.43886 10.3125 4.2004 10.4113 4.02459 10.5871C3.84877 10.7629 3.75 11.0014 3.75 11.25V23.9062C3.75 25.6781 5.25938 27.1875 7.03125 27.1875H22.9688C24.7406 27.1875 26.25 25.7514 26.25 23.9795V11.25C26.25 11.0014 26.1512 10.7629 25.9754 10.5871C25.7996 10.4113 25.5611 10.3125 25.3125 10.3125H4.6875Z" stroke="#3A3A3A" stroke-width="1.875" stroke-linecap="round" stroke-linejoin="round"/>
</g>
</svg>
