<svg width="96" height="30" viewBox="0 0 96 30" fill="none" xmlns="http://www.w3.org/2000/svg">
<g id="Frame 22">
<path id="Vector" d="M10.3968 9.653C10.5911 9.653 10.7854 9.74764 10.9798 9.84228C11.1741 10.0316 11.1741 10.1262 11.1741 10.4101C11.1741 10.5994 11.0769 10.7887 10.9798 10.9779C10.7854 11.1672 10.6883 11.1672 10.3968 11.1672H0.777328C0.582996 11.1672 0.388664 11.0726 0.291498 10.8833C0.0971661 10.7887 0 10.5994 0 10.4101C0 10.1262 0.0971661 10.0316 0.291498 9.84228C0.48583 9.74764 0.582996 9.653 0.777328 9.653H10.3968ZM8.55061 0C8.84211 0 9.23077 0 9.71661 0.0946373C10.2024 0.189275 10.5911 0.283912 10.8826 0.378549C11.1741 0.567824 11.3684 0.757098 11.3684 1.13565C11.3684 1.32492 11.2713 1.5142 11.1741 1.70347C11.0769 1.79811 10.8826 1.89275 10.5911 1.89275C10.2996 1.89275 10.0081 1.79811 9.61944 1.60883C9.23077 1.41956 8.84211 1.41956 8.35628 1.41956C7.77328 1.41956 7.28745 1.5142 6.89879 1.79811C6.51013 1.98738 6.21863 2.36593 6.02429 2.83912C5.7328 3.40694 5.63563 3.97477 5.63563 4.73186V28.3912C5.63563 28.5805 5.53846 28.7697 5.4413 28.959C5.24697 29.1483 5.05263 29.2429 4.8583 29.2429C4.5668 29.2429 4.37247 29.1483 4.27531 28.959C4.08097 28.7697 4.08097 28.5805 4.08097 28.3912V4.73186C4.08097 3.12303 4.5668 1.89275 5.4413 1.13565C6.21863 0.378549 7.28745 0 8.55061 0Z" fill="#353535"/>
<path id="Vector_2" d="M31.579 13.9121C30.7045 12.3032 29.5385 11.073 27.9838 10.1266C26.5263 9.18022 24.7773 8.70703 22.834 8.70703C20.9879 8.70703 19.2389 9.18022 17.6842 10.1266C16.1296 11.073 14.9636 12.3032 14.0891 13.9121C13.2146 15.5209 12.7288 17.2244 12.7288 19.3064C12.7288 21.2938 13.2146 22.9973 14.0891 24.6061C14.9636 26.2149 16.1296 27.4452 17.6842 28.297C19.2389 29.2433 20.8907 29.7165 22.834 29.7165C24.7773 29.7165 26.4292 29.2433 27.9838 28.297C29.5385 27.3506 30.7045 26.1203 31.579 24.6061C32.4535 22.9973 32.8421 21.2938 32.8421 19.3064C32.9393 17.2244 32.4535 15.4263 31.579 13.9121ZM30.2186 23.7544C29.5385 25.0793 28.4697 26.1203 27.3037 26.972C26.0405 27.7291 24.583 28.1077 22.9312 28.1077C21.3765 28.1077 19.919 27.7291 18.6559 26.972C17.3927 26.2149 16.4211 25.0793 15.6437 23.7544C14.8664 22.4294 14.5749 20.9152 14.5749 19.2118C14.5749 17.5083 14.9636 15.9941 15.6437 14.5745C16.4211 13.2496 17.3927 12.2086 18.6559 11.3569C19.919 10.5998 21.3765 10.2212 22.9312 10.2212C24.583 10.2212 26.0405 10.5998 27.3037 11.3569C28.5668 12.114 29.5385 13.155 30.2186 14.5745C30.8988 15.8995 31.2875 17.4137 31.2875 19.2118C31.2875 20.9152 30.8988 22.4294 30.2186 23.7544Z" fill="#353535"/>
<path id="Vector_3" d="M47.3196 8.80078C48.5828 8.80078 49.6516 8.89542 50.7204 9.17933C51.7893 9.46324 52.6638 9.84179 53.3439 10.2203C54.0241 10.6935 54.3156 11.0721 54.3156 11.6399C54.3156 11.8292 54.2184 12.0184 54.1212 12.2077C53.9269 12.397 53.8297 12.4916 53.5382 12.4916C53.2467 12.4916 52.9553 12.397 52.8581 12.2077C52.6638 12.0184 52.4694 11.8292 52.2751 11.6399C52.0808 11.4506 51.7893 11.1667 51.4006 10.9774C51.0119 10.7882 50.5261 10.5989 49.8459 10.5043C49.1658 10.4096 48.2913 10.315 47.3196 10.315C45.765 10.315 44.3075 10.6935 43.0443 11.5453C41.7812 12.3024 40.7123 13.438 39.935 14.7629C39.1577 16.0879 38.769 17.602 38.769 19.3055C38.769 21.009 39.1577 22.5232 39.8378 23.8481C40.518 25.173 41.5868 26.3087 42.85 27.0658C44.1131 27.8229 45.6678 28.2014 47.3196 28.2014C48.5828 28.2014 49.4573 28.1068 50.1374 27.8229C50.8176 27.539 51.3034 27.3497 51.7893 27.0658C52.3723 26.7819 52.7609 26.4033 52.9552 26.1194C53.1496 25.8355 53.4411 25.6462 53.7326 25.6462C53.9269 25.6462 54.1212 25.7409 54.2184 25.8355C54.3156 25.9301 54.4127 26.1194 54.4127 26.3087C54.4127 26.5926 54.1212 27.0658 53.5382 27.539C52.9552 28.0122 52.0808 28.4853 51.0119 28.9585C49.9431 29.3371 48.6799 29.5264 47.2225 29.5264C45.2791 29.5264 43.5301 29.0532 41.9755 28.1068C40.4208 27.1604 39.2548 25.9301 38.3803 24.3213C37.5059 22.7125 37.1172 20.9144 37.1172 18.927C37.1172 17.0342 37.5059 15.3308 38.3803 13.8166C39.2548 12.2077 40.4208 10.9774 41.9755 10.0311C43.5301 9.27397 45.2791 8.80078 47.3196 8.80078Z" fill="#353535"/>
<path id="Vector_4" d="M74.6235 9.36914C74.8178 9.36914 75.1093 9.46378 75.2065 9.65305C75.3037 9.84233 75.4008 10.0316 75.4008 10.2209V21.7666C75.4008 24.3218 74.6235 26.3092 73.166 27.5395C71.7085 28.8644 69.7652 29.4322 67.3361 29.4322C64.9069 29.4322 62.9636 28.7698 61.5061 27.5395C60.0486 26.2146 59.2713 24.3218 59.2713 21.7666V10.2209C59.2713 10.0316 59.3684 9.84233 59.4656 9.65305C59.6599 9.46378 59.8543 9.36914 60.0486 9.36914C60.3401 9.36914 60.5344 9.46378 60.6316 9.65305C60.8259 9.84233 60.8259 10.0316 60.8259 10.2209V21.7666C60.8259 23.754 61.4089 25.3628 62.5749 26.4039C63.7409 27.4449 65.2956 28.0127 67.2389 28.0127C69.2794 28.0127 70.834 27.4449 72 26.4039C73.166 25.3628 73.749 23.8486 73.749 21.7666V10.2209C73.749 10.0316 73.8462 9.84233 73.9433 9.65305C74.2348 9.46378 74.4292 9.36914 74.6235 9.36914Z" fill="#353535"/>
<path id="Vector_5" d="M81.0364 26.1205C80.842 25.8366 80.7449 25.5526 80.7449 25.3634C80.7449 25.1741 80.842 24.9848 81.0364 24.8902C81.1335 24.7956 81.3279 24.7009 81.6194 24.7009C81.9109 24.7009 82.008 24.7956 82.2024 24.9848C82.8825 25.9312 83.8542 26.7829 84.923 27.3508C85.9918 27.9186 87.3522 28.2971 88.8097 28.2971C89.6842 28.2971 90.5586 28.1079 91.4331 27.8239C92.2105 27.54 92.8906 27.0668 93.4736 26.499C93.9595 25.9312 94.251 25.1741 94.251 24.3224C94.251 23.376 93.9595 22.7135 93.4736 22.1457C92.9878 21.5779 92.3076 21.1993 91.5303 20.8208C90.753 20.5369 89.8785 20.253 89.004 20.0637C88.0323 19.7798 87.1578 19.5905 86.2833 19.2119C85.4088 18.928 84.6315 18.5495 84.0485 18.0763C83.3684 17.6031 82.8825 17.0353 82.4939 16.4675C82.1052 15.805 81.9109 15.0479 81.9109 14.1962C81.9109 13.1552 82.2024 12.2088 82.7854 11.4517C83.3684 10.6 84.1457 10.0321 85.2145 9.55895C86.2833 9.08576 87.4493 8.89648 88.8097 8.89648C89.4898 8.89648 90.17 8.99112 90.8501 9.1804C91.6275 9.36967 92.3076 9.65358 93.085 10.0321C93.8623 10.4107 94.4453 10.9785 95.1254 11.641C95.3198 11.8302 95.4169 12.0195 95.4169 12.2088C95.4169 12.3981 95.3198 12.682 95.1254 12.8713C94.9311 12.9659 94.834 13.0605 94.6396 13.0605C94.4453 13.0605 94.251 12.9659 94.1538 12.7766C93.4736 12.0195 92.5991 11.4517 91.7246 11.0731C90.753 10.6946 89.7813 10.5053 88.7125 10.5053C87.838 10.5053 86.9635 10.6946 86.1862 10.9785C85.4088 11.2624 84.8259 11.7356 84.34 12.3034C83.8542 12.8713 83.5627 13.6283 83.5627 14.4801C83.6599 15.3318 83.9514 15.9943 84.4372 16.4675C84.923 17.0353 85.7003 17.4138 86.5748 17.7924C87.4493 18.1709 88.421 18.4549 89.587 18.7388C90.4615 18.928 91.336 19.212 92.1133 19.4959C92.8906 19.7798 93.5708 20.1583 94.1538 20.5369C94.7368 20.9154 95.2226 21.4832 95.5141 22.1457C95.8056 22.8082 95.9999 23.5653 95.9999 24.5116C95.9999 25.6473 95.7084 26.5937 95.1254 27.4454C94.5425 28.2971 93.668 28.865 92.5991 29.3381C91.5303 29.8113 90.2671 30.0006 88.9068 30.0006C87.5465 30.0006 86.1862 29.7167 84.8259 29.1489C83.2712 28.2971 82.1052 27.3508 81.0364 26.1205Z" fill="#353535"/>
</g>
</svg>
