<svg width="259" height="83" viewBox="0 0 259 83" fill="none" xmlns="http://www.w3.org/2000/svg">
<path d="M28.0496 26.7066C28.5739 26.7066 29.0982 26.9685 29.6225 27.2303C30.1468 27.754 30.1468 28.0158 30.1468 28.8013C30.1468 29.3249 29.8846 29.8486 29.6225 30.3723C29.0982 30.8959 28.836 30.8959 28.0496 30.8959H2.09717C1.57288 30.8959 1.04858 30.6341 0.786438 30.1104C0.262146 29.8486 0 29.3249 0 28.8013C0 28.0158 0.262146 27.754 0.786438 27.2303C1.31073 26.9685 1.57288 26.7066 2.09717 26.7066H28.0496ZM23.0688 0C23.8553 0 24.9039 0 26.2146 0.26183C27.5253 0.52366 28.5739 0.78549 29.3603 1.04732C30.1468 1.57098 30.6711 2.09464 30.6711 3.14196C30.6711 3.66562 30.4089 4.18928 30.1468 4.71294C29.8846 4.97477 29.3603 5.2366 28.5739 5.2366C27.7875 5.2366 27.001 4.97477 25.9524 4.45111C24.9039 3.92745 23.8553 3.92745 22.5445 3.92745C20.9717 3.92745 19.6609 4.18928 18.6124 4.97477C17.5638 5.49843 16.7773 6.54575 16.253 7.8549C15.4666 9.42587 15.2045 10.9969 15.2045 13.0915V78.549C15.2045 79.0726 14.9423 79.5963 14.6802 80.1199C14.1559 80.6436 13.6316 80.9054 13.1073 80.9054C12.3209 80.9054 11.7966 80.6436 11.5344 80.1199C11.0101 79.5963 11.0101 79.0726 11.0101 78.549V13.0915C11.0101 8.64038 12.3209 5.2366 14.6802 3.14196C16.7773 1.04732 19.6609 0 23.0688 0Z" fill="#3A3A3A"/>
<path d="M85.1976 38.489C82.8383 34.0379 79.6925 30.6341 75.4982 28.0158C71.566 25.3975 66.8474 24.0884 61.6045 24.0884C56.6237 24.0884 51.9051 25.3975 47.7107 28.0158C43.5164 30.6341 40.3707 34.0379 38.0113 38.489C35.652 42.9401 34.3413 47.6531 34.3413 53.4133C34.3413 58.9117 35.652 63.6247 38.0113 68.0758C40.3707 72.5269 43.5164 75.9307 47.7107 78.2872C51.9051 80.9055 56.3616 82.2146 61.6045 82.2146C66.8474 82.2146 71.3039 80.9055 75.4982 78.2872C79.6925 75.6689 82.8383 72.2651 85.1976 68.0758C87.5569 63.6247 88.6055 58.9117 88.6055 53.4133C88.8676 47.6531 87.5569 42.6783 85.1976 38.489ZM81.5276 65.7193C79.6925 69.3849 76.8089 72.2651 73.6632 74.6215C70.2553 76.7162 66.3231 77.7635 61.8666 77.7635C57.6723 77.7635 53.7401 76.7162 50.3322 74.6215C46.9243 72.5269 44.3029 69.3849 42.2057 65.7193C40.1085 62.0537 39.3221 57.8644 39.3221 53.1515C39.3221 48.4386 40.3707 44.2493 42.2057 40.3218C44.3029 36.6562 46.9243 33.7761 50.3322 31.4196C53.7401 29.325 57.6723 28.2777 61.8666 28.2777C66.3231 28.2777 70.2553 29.325 73.6632 31.4196C77.0711 33.5143 79.6925 36.3944 81.5276 40.3218C83.3626 43.9874 84.4112 48.1767 84.4112 53.1515C84.4112 57.8644 83.3626 62.0537 81.5276 65.7193Z" fill="#3A3A3A"/>
<path d="M84.4109 53.1514C84.4109 57.8644 83.3623 62.0536 81.5273 65.7193C79.6922 69.3849 76.8086 72.265 73.6629 74.6215C70.255 76.7161 66.3228 77.7634 61.8663 77.7634C57.672 77.7634 53.7398 76.7161 50.3319 74.6215C46.924 72.5268 44.3025 69.3849 42.2054 65.7193C40.1082 62.0536 39.3218 57.8644 39.3218 53.1514C39.3218 48.4385 40.3704 44.2492 42.2054 40.3218C44.3025 36.6561 46.924 33.776 50.3319 31.4195C53.7398 29.3249 57.672 28.2776 61.8663 28.2776C66.3228 28.2776 70.255 29.3249 73.6629 31.4195C77.0708 33.5142 79.6922 36.3943 81.5273 40.3218C83.3623 44.2492 84.4109 48.4385 84.4109 53.1514Z" fill="#FFD039"/>
<path d="M127.664 24.3502C131.072 24.3502 133.956 24.612 136.84 25.3975C139.723 26.183 142.083 27.2303 143.918 28.2777C145.753 29.5868 146.539 30.6341 146.539 32.2051C146.539 32.7288 146.277 33.2524 146.015 33.7761C145.49 34.2998 145.228 34.5616 144.442 34.5616C143.655 34.5616 142.869 34.2998 142.607 33.7761C142.083 33.2524 141.558 32.7288 141.034 32.2051C140.51 31.6815 139.723 30.896 138.675 30.3723C137.626 29.8486 136.315 29.325 134.48 29.0632C132.645 28.8013 130.286 28.5395 127.664 28.5395C123.47 28.5395 119.538 29.5868 116.13 31.9433C112.722 34.0379 109.839 37.1799 107.741 40.8455C105.644 44.5111 104.596 48.7004 104.596 53.4133C104.596 58.1263 105.644 62.3156 107.479 65.9812C109.314 69.6468 112.198 72.7887 115.606 74.8834C119.014 76.978 123.208 78.0253 127.664 78.0253C131.072 78.0253 133.432 77.7635 135.267 76.978C137.102 76.1925 138.412 75.6689 139.723 74.8834C141.296 74.0979 142.345 73.0506 142.869 72.2651C143.393 71.4796 144.18 70.9559 144.966 70.9559C145.49 70.9559 146.015 71.2178 146.277 71.4796C146.539 71.7414 146.801 72.2651 146.801 72.7887C146.801 73.5742 146.015 74.8834 144.442 76.1925C142.869 77.5017 140.51 78.8108 137.626 80.12C134.742 81.1673 131.335 81.691 127.402 81.691C122.159 81.691 117.441 80.3818 113.246 77.7635C109.052 75.1452 105.906 71.7414 103.547 67.2903C101.188 62.8392 100.139 57.8644 100.139 52.366C100.139 47.1294 101.188 42.4165 103.547 38.2272C105.906 33.7761 109.052 30.3723 113.246 27.754C117.441 25.6594 122.159 24.3502 127.664 24.3502Z" fill="#3A3A3A"/>
<path d="M201.328 25.921C201.853 25.921 202.639 26.1829 202.901 26.7065C203.163 27.2302 203.425 27.7538 203.425 28.2775V60.2207C203.425 67.2901 201.328 72.7886 197.396 76.1924C193.464 79.858 188.221 81.429 181.667 81.429C175.114 81.429 169.871 79.5961 165.939 76.1924C162.006 72.5267 159.909 67.2901 159.909 60.2207V28.2775C159.909 27.7538 160.171 27.2302 160.433 26.7065C160.958 26.1829 161.482 25.921 162.006 25.921C162.793 25.921 163.317 26.1829 163.579 26.7065C164.104 27.2302 164.104 27.7538 164.104 28.2775V60.2207C164.104 65.7192 165.676 70.1703 168.822 73.0504C171.968 75.9305 176.162 77.5015 181.405 77.5015C186.91 77.5015 191.105 75.9305 194.25 73.0504C197.396 70.1703 198.969 65.981 198.969 60.2207V28.2775C198.969 27.7538 199.231 27.2302 199.493 26.7065C200.28 26.1829 200.804 25.921 201.328 25.921Z" fill="#3A3A3A"/>
<path d="M218.63 72.265C218.105 71.4795 217.843 70.694 217.843 70.1703C217.843 69.6467 218.105 69.123 218.63 68.8612C218.892 68.5994 219.416 68.3375 220.203 68.3375C220.989 68.3375 221.251 68.5994 221.775 69.123C223.61 71.7413 226.232 74.0978 229.116 75.6688C231.999 77.2397 235.669 78.2871 239.601 78.2871C241.961 78.2871 244.32 77.7634 246.679 76.9779C248.776 76.1924 250.611 74.8833 252.184 73.3123C253.495 71.7413 254.282 69.6467 254.282 67.2902C254.282 64.6719 253.495 62.8391 252.184 61.2681C250.874 59.6971 249.039 58.6498 246.941 57.6025C244.844 56.817 242.485 56.0315 240.126 55.5079C237.504 54.7224 235.145 54.1987 232.786 53.1514C230.426 52.3659 228.329 51.3186 226.756 50.0094C224.921 48.7003 223.61 47.1293 222.562 45.5583C221.513 43.7255 220.989 41.6309 220.989 39.2744C220.989 36.3943 221.775 33.776 223.348 31.6813C224.921 29.3249 227.018 27.7539 229.902 26.4447C232.786 25.1356 235.931 24.6119 239.601 24.6119C241.436 24.6119 243.271 24.8738 245.106 25.3974C247.204 25.9211 249.039 26.7066 251.136 27.7539C253.233 28.8012 254.806 30.3722 256.641 32.205C257.165 32.7287 257.427 33.2523 257.427 33.776C257.427 34.2996 257.165 35.0851 256.641 35.6088C256.117 35.8706 255.854 36.1325 255.33 36.1325C254.806 36.1325 254.282 35.8706 254.019 35.347C252.184 33.2523 249.825 31.6813 247.466 30.634C244.844 29.5867 242.223 29.063 239.339 29.063C236.98 29.063 234.621 29.5867 232.523 30.3722C230.426 31.1577 228.853 32.4668 227.543 34.0378C226.232 35.6088 225.445 37.7034 225.445 40.0599C225.708 42.4164 226.494 44.2492 227.805 45.5583C229.116 47.1293 231.213 48.1766 233.572 49.2239C235.931 50.2713 238.553 51.0568 241.699 51.8422C244.058 52.3659 246.417 53.1514 248.514 53.9369C250.612 54.7224 252.447 55.7697 254.019 56.817C255.592 57.8643 256.903 59.4353 257.689 61.2681C258.476 63.1009 259 65.1956 259 67.8139C259 70.9558 258.214 73.5741 256.641 75.9306C255.068 78.2871 252.709 79.858 249.825 81.1672C246.941 82.4763 243.534 83 239.864 83C236.193 83 232.523 82.2145 228.853 80.6435C224.659 78.2871 221.513 75.6688 218.63 72.265Z" fill="#3A3A3A"/>
</svg>
