
<svg width="30" height="30" viewBox="0 0 30 30" fill="none" xmlns="http://www.w3.org/2000/svg">
<path fill-rule="evenodd" clip-rule="evenodd" d="M29 15.5C29 22.9561 22.9561 29 15.5 29C8.04395 29 2 22.9561 2 15.5C2 8.04395 8.04395 2 15.5 2C22.9561 2 29 8.04395 29 15.5ZM19.55 11.45C19.55 12.5241 19.1233 13.5543 18.3638 14.3138C17.6043 15.0733 16.5741 15.5 15.5 15.5C14.4259 15.5 13.3957 15.0733 12.6362 14.3138C11.8767 13.5543 11.45 12.5241 11.45 11.45C11.45 10.3759 11.8767 9.34574 12.6362 8.58622C13.3957 7.8267 14.4259 7.4 15.5 7.4C16.5741 7.4 17.6043 7.8267 18.3638 8.58622C19.1233 9.34574 19.55 10.3759 19.55 11.45ZM15.5 26.975C17.817 26.9787 20.0803 26.2776 21.9894 24.9648C22.8048 24.4046 23.1532 23.3381 22.6779 22.4701C21.6965 20.6705 19.6715 19.55 15.5 19.55C11.3285 19.55 9.3035 20.6705 8.3207 22.4701C7.84685 23.3381 8.19515 24.4046 9.01055 24.9648C10.9197 26.2776 13.183 26.9787 15.5 26.975Z" fill="#353535"/>
</svg>