<svg width="30" height="30" viewBox="0 0 30 30" fill="none" xmlns="http://www.w3.org/2000/svg">
<g id="solar:user-circle-linear">
<g id="Group">
<path id="Vector" d="M15 15C17.0711 15 18.75 13.3211 18.75 11.25C18.75 9.17893 17.0711 7.5 15 7.5C12.9289 7.5 11.25 9.17893 11.25 11.25C11.25 13.3211 12.9289 15 15 15Z" stroke="#3A3A3A" stroke-width="1.875"/>
<path id="Vector_2" d="M15 27.5C21.9036 27.5 27.5 21.9036 27.5 15C27.5 8.09644 21.9036 2.5 15 2.5C8.09644 2.5 2.5 8.09644 2.5 15C2.5 21.9036 8.09644 27.5 15 27.5Z" stroke="#3A3A3A" stroke-width="1.875"/>
<path id="Vector_3" d="M22.4626 25C22.2626 21.385 21.1563 18.75 15.0001 18.75C8.84385 18.75 7.7376 21.385 7.5376 25" stroke="#3A3A3A" stroke-width="1.875" stroke-linecap="round"/>
</g>
</g>
</svg>
